<svg width="5" height="41" viewBox="0 0 5 41" fill="none" xmlns="http://www.w3.org/2000/svg">
<path d="M1.47845 1.03648C2.11465 1.0166 2.69121 1.37446 2.98943 1.91126C3.38706 2.60711 3.10872 3.48189 2.8105 4.15786C2.47252 4.95312 2.05501 5.70861 1.89595 6.54363C1.7369 7.39853 1.85619 8.19378 2.37311 8.88963C2.55204 9.12821 2.77074 9.36679 2.79062 9.66501C2.79062 9.68489 2.77074 9.7843 2.75086 9.82406C2.67133 9.96323 2.67133 9.96323 2.57192 10.0825C2.21406 10.4801 1.7369 10.7585 1.39892 11.176C0.961529 11.7128 0.84224 12.3689 1.14046 13.025C1.39892 13.6015 1.93572 13.9992 2.23394 14.536C2.4924 14.9932 2.39299 15.4306 2.17429 15.8879C1.91584 16.4446 1.55797 16.9416 1.27963 17.4983C1.00129 18.0947 0.822359 18.7111 0.98141 19.3671C1.06094 19.725 1.25975 20.063 1.47845 20.3811C1.65738 20.6594 1.87607 20.9378 1.9556 21.2559C2.09477 21.7927 1.65738 22.3295 1.35916 22.7867C1.00129 23.3633 0.742833 24.0393 0.961529 24.7152C1.18022 25.3713 1.75678 25.7491 2.11465 26.3256C2.4924 26.9221 2.17429 27.598 1.99536 28.2144C1.87607 28.5921 1.77667 28.9897 1.77667 29.3874C1.77667 29.8049 1.91584 30.2025 2.07489 30.6001C2.23394 30.9978 2.39299 31.3954 2.45263 31.8129C2.51228 32.2702 2.4924 32.7274 2.4924 33.1847C2.51228 35.153 2.53216 37.1212 2.55204 39.0696C2.55204 39.5468 2.57192 40.0239 2.57192 40.5011C2.57192 41.1373 3.56599 41.1373 3.56599 40.5011C3.54611 38.5129 3.52623 36.5049 3.50635 34.5168C3.48647 33.5625 3.54611 32.5684 3.42682 31.6141C3.36718 31.1568 3.20813 30.7393 3.02919 30.3218C2.87014 29.9639 2.75086 29.6061 2.79062 29.2084C2.87014 28.4331 3.30753 27.7571 3.30753 26.9618C3.30753 26.1666 2.85026 25.6099 2.33335 25.0333C2.15441 24.8345 1.9556 24.5959 1.89595 24.3375C1.83631 24.0989 1.91584 23.8802 2.01524 23.6615C2.31346 23.0651 2.77074 22.568 2.90991 21.912C3.08884 21.0968 2.69121 20.4606 2.2737 19.8045C2.19418 19.6654 2.09477 19.5262 2.03512 19.3671C1.97548 19.2478 1.93572 19.0689 1.93572 18.9894C1.91584 18.711 1.9556 18.5122 2.07489 18.214C2.4924 17.0808 3.56599 16.0867 3.36718 14.7348C3.26777 14.0389 2.77074 13.5419 2.35323 13.025C2.19418 12.8261 2.01524 12.6075 1.99536 12.349C1.97548 12.2695 1.99536 12.1899 2.01524 12.0905C2.03512 12.0309 2.07489 11.9315 2.15441 11.8321C2.11465 11.8718 2.23394 11.7526 2.25382 11.7327C2.29358 11.6929 2.33335 11.6333 2.39299 11.5935C2.4924 11.4941 2.5918 11.4146 2.71109 11.3152C2.90991 11.1362 3.1286 10.9772 3.32742 10.7784C3.82445 10.2615 3.9835 9.58549 3.6654 8.9294C3.50635 8.59142 3.22801 8.33295 3.04908 7.99497C2.87014 7.67687 2.85026 7.29912 2.89003 6.94126C2.98943 6.10624 3.42682 5.35074 3.74493 4.59525C4.10279 3.76023 4.38113 2.8258 4.12267 1.91126C3.92386 1.17565 3.36718 0.539443 2.67133 0.241222C2.31346 0.0821709 1.93572 -0.0172386 1.53809 0.00264284C0.84224 0.0424057 0.84224 1.03648 1.47845 1.03648Z" fill="black"/>
</svg>
